HIERARCHY
ROOT mixamorig:Hips
{
	OFFSET 0.000000 201.639420 0.000000
	CHANNELS 6 Xposition Yposition Zposition Xrotation Yrotation Zrotation
	JOINT mixamorig:Spine
	{
		OFFSET 0.006200 19.524994 -2.481800
		CHANNELS 3 Xrotation Yrotation Zrotation
		JOINT mixamorig:Spine1
		{
			OFFSET -0.000900 22.835007 -2.825400
			CHANNELS 3 Xrotation Yrotation Zrotation
			JOINT mixamorig:Spine2
			{
				OFFSET -0.020600 26.552490 -3.193300
				CHANNELS 3 Xrotation Yrotation Zrotation
				JOINT mixamorig:Neck
				{
					OFFSET -0.060000 30.701813 1.352200
					CHANNELS 3 Xrotation Yrotation Zrotation
					JOINT mixamorig:Head
					{
						OFFSET -0.087200 22.547607 3.670900
						CHANNELS 3 Xrotation Yrotation Zrotation
						JOINT mixamorig:HeadTop_End
						{
							OFFSET -0.830600 40.355194 7.893500
							CHANNELS 3 Xrotation Yrotation Zrotation
							End Site
							{
								OFFSET 0.000000 30.592346 0.000000
							}
						}
						JOINT mixamorig:RightEye
						{
							OFFSET -6.302100 18.118591 16.197100
							CHANNELS 3 Xrotation Yrotation Zrotation
							End Site
							{
								OFFSET 0.000000 30.592346 0.000000
							}
						}
						JOINT mixamorig:LeftEye
						{
							OFFSET 6.741500 18.382690 16.401899
							CHANNELS 3 Xrotation Yrotation Zrotation
							End Site
							{
								OFFSET 0.000000 30.592346 0.000000
							}
						}
					}
				}
				JOINT mixamorig:LeftShoulder
				{
					OFFSET 11.924900 18.230499 1.425400
					CHANNELS 3 Xrotation Yrotation Zrotation
					JOINT mixamorig:LeftArm
					{
						OFFSET 25.435989 -0.697632 -5.229300
						CHANNELS 3 Xrotation Yrotation Zrotation
						JOINT mixamorig:LeftForeArm
						{
							OFFSET 54.684776 0.000000 0.000000
							CHANNELS 3 Xrotation Yrotation Zrotation
							JOINT mixamorig:LeftHand
							{
								OFFSET 55.098175 0.000000 0.000000
								CHANNELS 3 Xrotation Yrotation Zrotation
								JOINT mixamorig:LeftHandMiddle1
								{
									OFFSET 23.369751 0.000000 0.000000
									CHANNELS 3 Xrotation Yrotation Zrotation
									JOINT mixamorig:LeftHandMiddle2
									{
										OFFSET 6.378677 0.000000 0.000000
										CHANNELS 3 Xrotation Yrotation Zrotation
										JOINT mixamorig:LeftHandMiddle3
										{
											OFFSET 6.148331 0.000000 0.000000
											CHANNELS 3 Xrotation Yrotation Zrotation
											JOINT mixamorig:LeftHandMiddle4
											{
												OFFSET 6.582504 0.000000 0.000000
												CHANNELS 3 Xrotation Yrotation Zrotation
												End Site
												{
													OFFSET -1.168900 6.395691 1.028606
												}
											}
										}
									}
								}
								JOINT mixamorig:LeftHandThumb1
								{
									OFFSET 7.235672 -3.848206 5.434273
									CHANNELS 3 Xrotation Yrotation Zrotation
									JOINT mixamorig:LeftHandThumb2
									{
										OFFSET 6.568451 -3.792297 3.792300
										CHANNELS 3 Xrotation Yrotation Zrotation
										JOINT mixamorig:LeftHandThumb3
										{
											OFFSET 6.063080 -3.500519 3.500518
											CHANNELS 3 Xrotation Yrotation Zrotation
											JOINT mixamorig:LeftHandThumb4
											{
												OFFSET 4.793182 -2.767334 2.767349
												CHANNELS 3 Xrotation Yrotation Zrotation
												End Site
												{
													OFFSET 0.101639 6.054260 1.275483
												}
											}
										}
									}
								}
								JOINT mixamorig:LeftHandIndex1
								{
									OFFSET 23.101074 -0.309540 4.992809
									CHANNELS 3 Xrotation Yrotation Zrotation
									JOINT mixamorig:LeftHandIndex2
									{
										OFFSET 6.226883 0.000000 0.000000
										CHANNELS 3 Xrotation Yrotation Zrotation
										JOINT mixamorig:LeftHandIndex3
										{
											OFFSET 6.094330 0.000000 0.000000
											CHANNELS 3 Xrotation Yrotation Zrotation
											JOINT mixamorig:LeftHandIndex4
											{
												OFFSET 5.482605 0.000000 0.000000
												CHANNELS 3 Xrotation Yrotation Zrotation
												End Site
												{
													OFFSET -1.427902 5.233032 0.797164
												}
											}
										}
									}
								}
								JOINT mixamorig:LeftHandRing1
								{
									OFFSET 22.299240 0.021149 -3.964172
									CHANNELS 3 Xrotation Yrotation Zrotation
									JOINT mixamorig:LeftHandRing2
									{
										OFFSET 6.321869 0.000000 0.000000
										CHANNELS 3 Xrotation Yrotation Zrotation
										JOINT mixamorig:LeftHandRing3
										{
											OFFSET 5.899796 0.000000 0.000000
											CHANNELS 3 Xrotation Yrotation Zrotation
											JOINT mixamorig:LeftHandRing4
											{
												OFFSET 6.517899 0.000000 0.000000
												CHANNELS 3 Xrotation Yrotation Zrotation
												End Site
												{
													OFFSET -1.637299 6.232208 0.980890
												}
											}
										}
									}
								}
								JOINT mixamorig:LeftHandPinky1
								{
									OFFSET 20.463791 -0.302338 -8.562233
									CHANNELS 3 Xrotation Yrotation Zrotation
									JOINT mixamorig:LeftHandPinky2
									{
										OFFSET 6.908646 0.000000 0.000000
										CHANNELS 3 Xrotation Yrotation Zrotation
										JOINT mixamorig:LeftHandPinky3
										{
											OFFSET 4.622849 0.000000 0.000000
											CHANNELS 3 Xrotation Yrotation Zrotation
											JOINT mixamorig:LeftHandPinky4
											{
												OFFSET 5.216080 0.000000 0.000000
												CHANNELS 3 Xrotation Yrotation Zrotation
												End Site
												{
													OFFSET -0.606308 5.116241 0.814926
												}
											}
										}
									}
								}
							}
						}
					}
				}
				JOINT mixamorig:RightShoulder
				{
					OFFSET -12.001300 18.284088 1.348900
					CHANNELS 3 Xrotation Yrotation Zrotation
					JOINT mixamorig:RightArm
					{
						OFFSET -25.308500 -0.751312 -5.164599
						CHANNELS 3 Xrotation Yrotation Zrotation
						JOINT mixamorig:RightForeArm
						{
							OFFSET -54.684429 0.000000 0.000000
							CHANNELS 3 Xrotation Yrotation Zrotation
							JOINT mixamorig:RightHand
							{
								OFFSET -55.150291 0.000000 0.000000
								CHANNELS 3 Xrotation Yrotation Zrotation
								JOINT mixamorig:RightHandMiddle1
								{
									OFFSET -23.317566 0.000000 0.000000
									CHANNELS 3 Xrotation Yrotation Zrotation
									JOINT mixamorig:RightHandMiddle2
									{
										OFFSET -6.378403 0.000000 0.000000
										CHANNELS 3 Xrotation Yrotation Zrotation
										JOINT mixamorig:RightHandMiddle3
										{
											OFFSET -6.148193 0.000000 0.000000
											CHANNELS 3 Xrotation Yrotation Zrotation
											JOINT mixamorig:RightHandMiddle4
											{
												OFFSET -6.583389 0.000000 0.000000
												CHANNELS 3 Xrotation Yrotation Zrotation
												End Site
												{
													OFFSET 1.171692 6.395905 1.029786
												}
											}
										}
									}
								}
								JOINT mixamorig:RightHandThumb1
								{
									OFFSET -7.190521 -3.860474 5.435846
									CHANNELS 3 Xrotation Yrotation Zrotation
									JOINT mixamorig:RightHandThumb2
									{
										OFFSET -6.567429 -3.791718 3.791708
										CHANNELS 3 Xrotation Yrotation Zrotation
										JOINT mixamorig:RightHandThumb3
										{
											OFFSET -6.062469 -3.500153 3.500166
											CHANNELS 3 Xrotation Yrotation Zrotation
											JOINT mixamorig:RightHandThumb4
											{
												OFFSET -4.792618 -2.767029 2.767022
												CHANNELS 3 Xrotation Yrotation Zrotation
												End Site
												{
													OFFSET -0.100327 6.053253 1.276754
												}
											}
										}
									}
								}
								JOINT mixamorig:RightHandIndex1
								{
									OFFSET -23.048981 -0.310791 4.992554
									CHANNELS 3 Xrotation Yrotation Zrotation
									JOINT mixamorig:RightHandIndex2
									{
										OFFSET -6.227539 0.000000 0.000000
										CHANNELS 3 Xrotation Yrotation Zrotation
										JOINT mixamorig:RightHandIndex3
										{
											OFFSET -6.095047 0.000000 0.000000
											CHANNELS 3 Xrotation Yrotation Zrotation
											JOINT mixamorig:RightHandIndex4
											{
												OFFSET -5.484772 0.000000 0.000000
												CHANNELS 3 Xrotation Yrotation Zrotation
												End Site
												{
													OFFSET 1.420593 5.237305 0.797056
												}
											}
										}
									}
								}
								JOINT mixamorig:RightHandRing1
								{
									OFFSET -22.246323 0.020569 -3.963762
									CHANNELS 3 Xrotation Yrotation Zrotation
									JOINT mixamorig:RightHandRing2
									{
										OFFSET -6.322128 0.000000 0.000000
										CHANNELS 3 Xrotation Yrotation Zrotation
										JOINT mixamorig:RightHandRing3
										{
											OFFSET -5.900024 0.000000 0.000000
											CHANNELS 3 Xrotation Yrotation Zrotation
											JOINT mixamorig:RightHandRing4
											{
												OFFSET -6.518356 0.000000 0.000000
												CHANNELS 3 Xrotation Yrotation Zrotation
												End Site
												{
													OFFSET 1.636398 6.232697 0.982186
												}
											}
										}
									}
								}
								JOINT mixamorig:RightHandPinky1
								{
									OFFSET -20.411011 -0.303314 -8.561701
									CHANNELS 3 Xrotation Yrotation Zrotation
									JOINT mixamorig:RightHandPinky2
									{
										OFFSET -6.907349 0.000000 0.000000
										CHANNELS 3 Xrotation Yrotation Zrotation
										JOINT mixamorig:RightHandPinky3
										{
											OFFSET -4.623840 0.000000 0.000000
											CHANNELS 3 Xrotation Yrotation Zrotation
											JOINT mixamorig:RightHandPinky4
											{
												OFFSET -5.218353 0.000000 0.000000
												CHANNELS 3 Xrotation Yrotation Zrotation
												End Site
												{
													OFFSET 0.602097 5.118835 0.816273
												}
											}
										}
									}
								}
							}
						}
					}
				}
			}
		}
	}
	JOINT mixamorig:LeftUpLeg
	{
		OFFSET 18.168400 -13.561905 -0.039000
		CHANNELS 3 Xrotation Yrotation Zrotation
		JOINT mixamorig:LeftLeg
		{
			OFFSET 0.577358 -80.825211 -3.695000
			CHANNELS 3 Xrotation Yrotation Zrotation
			JOINT mixamorig:LeftFoot
			{
				OFFSET -0.577356 -83.370262 -6.520700
				CHANNELS 3 Xrotation Yrotation Zrotation
				JOINT mixamorig:LeftToeBase
				{
					OFFSET 0.750401 -20.798306 25.135401
					CHANNELS 3 Xrotation Yrotation Zrotation
					JOINT mixamorig:LeftToe_End
					{
						OFFSET -0.000500 0.001200 19.917799
						CHANNELS 3 Xrotation Yrotation Zrotation
						End Site
						{
							OFFSET 0.000000 19.917805 0.000000
						}
					}
				}
			}
		}
	}
	JOINT mixamorig:RightUpLeg
	{
		OFFSET -18.162500 -13.585098 -0.041000
		CHANNELS 3 Xrotation Yrotation Zrotation
		JOINT mixamorig:RightLeg
		{
			OFFSET -0.595024 -80.945297 -3.631900
			CHANNELS 3 Xrotation Yrotation Zrotation
			JOINT mixamorig:RightFoot
			{
				OFFSET 0.595024 -83.218193 -6.561200
				CHANNELS 3 Xrotation Yrotation Zrotation
				JOINT mixamorig:RightToeBase
				{
					OFFSET -0.753601 -20.807106 25.115000
					CHANNELS 3 Xrotation Yrotation Zrotation
					JOINT mixamorig:RightToe_End
					{
						OFFSET 0.000299 0.001700 19.918200
						CHANNELS 3 Xrotation Yrotation Zrotation
						End Site
						{
							OFFSET 0.000000 19.918203 0.000000
						}
					}
				}
			}
		}
	}
}
MOTION
Frames: 4
Frame Time: 0.033333
4.505834 201.909821 -19.218307 35.140446 -1.748071 -0.114225 -0.806106 1.764972 0.194514 2.997509 -1.684235 1.532702 0.389704 2.125557 -0.742562 -5.506907 1.096523 -1.970484 -22.688895 -4.138155 -1.635654 0.000001 0.000000 -0.000000 0.000001 0.000000 -0.000000 0.000001 0.000000 -0.000000 1.307670 -10.012220 -3.834739 -42.116599 -25.611111 -10.268872 0.000110 -83.550064 0.000116 34.818955 -15.491258 6.653230 1.766471 7.762859 -21.467156 0.003605 0.205519 -2.005996 0.001509 0.133270 -1.300645 -0.000000 0.000004 -0.000002 -5.435238 -2.155085 -4.402361 21.067662 41.631239 -13.444532 -9.515119 -7.928973 13.466871 0.000004 0.000000 -0.000001 2.028003 7.758871 -25.615760 0.266592 1.748801 -17.333774 -0.000004 0.005219 -0.050862 -0.000003 -0.000003 -0.000001 0.276404 3.925297 -14.742209 -0.000000 0.007186 -0.070158 0.000005 -0.000035 0.000300 0.000001 -0.000004 0.000002 -0.148252 -0.605946 -4.008940 0.006755 0.281521 -2.748185 0.003319 0.197338 -1.925970 -0.000003 -0.000003 0.000002 -0.135492 -5.050589 -0.032894 -34.705994 9.844113 15.797925 0.000183 86.661939 -0.000223 31.437250 23.731764 -24.275466 1.278797 -8.555942 11.793319 0.047882 -0.666869 8.214457 0.015934 -0.385274 4.735030 0.000002 0.000000 -0.000000 -14.352319 0.937765 5.574363 13.791898 -33.817452 -3.945644 -3.061568 -11.473028 -15.147312 0.000000 0.000000 -0.000003 1.139665 -6.165130 19.367256 0.030064 -0.529009 6.507964 0.002305 -0.146185 1.794899 0.000001 0.000002 -0.000001 0.696086 -6.737872 8.847328 0.000660 -0.078302 0.961397 0.005767 -0.232013 2.849404 0.000000 -0.000000 -0.000001 0.003889 -7.482242 -0.698249 0.000516 -0.068854 0.845167 0.089134 -0.907789 11.216258 -0.000001 -0.000003 -0.000000 -89.984279 -30.261594 19.690532 91.208673 -2.322321 -8.750848 -4.788464 17.896113 12.998659 -0.000861 -0.000009 -0.000003 0.000003 -0.000002 -0.000003 -57.071268 2.163210 -5.126066 72.407027 8.943903 4.439013 -0.082342 2.278102 8.404507 -0.000003 0.000004 0.000002 0.000001 -0.000001 -0.000001 
4.567038 201.975082 -19.129921 35.178278 -1.799715 -0.151436 -0.830773 1.797253 0.198286 2.965770 -1.621405 1.560554 0.358718 2.189247 -0.713797 -5.494502 1.073989 -1.974049 -22.546816 -4.177614 -1.650617 -0.000000 0.000000 -0.000000 -0.000000 0.000000 -0.000000 -0.000000 0.000000 -0.000000 1.307677 -10.012220 -3.834740 -42.010626 -25.027456 -10.004786 0.000078 -83.221292 0.000088 34.823890 -15.606750 7.334623 1.750338 7.750532 -21.295577 0.003618 0.206073 -2.011268 0.001505 0.133273 -1.300645 -0.000001 0.000001 -0.000000 -5.435220 -2.155114 -4.402361 20.440398 40.485823 -13.297471 -9.515120 -7.928972 13.466874 0.000001 -0.000001 0.000003 2.039621 7.767122 -25.738736 0.267242 1.750944 -17.355393 0.000005 0.005456 -0.053385 0.000000 0.000000 0.000001 0.338247 4.172528 -14.201857 0.000015 0.007726 -0.075418 0.000005 -0.000031 0.000301 -0.000001 0.000001 0.000001 -0.110392 -0.315815 -3.647222 0.006757 0.281503 -2.747772 0.003316 0.197331 -1.925968 0.000000 -0.000004 0.000002 -0.135488 -5.050589 -0.032894 -34.961351 9.745957 15.419442 0.000016 84.308959 -0.000019 30.345660 26.039167 -24.290938 1.382274 -8.819884 12.251343 0.047881 -0.666871 8.214455 0.015931 -0.385272 4.735031 0.000002 0.000000 -0.000000 -14.065879 0.993441 4.583436 13.308348 -34.331949 -4.459013 -3.061575 -11.473037 -15.147319 0.000001 -0.000001 -0.000006 1.189113 -6.209766 20.092019 0.034047 -0.562747 6.925170 0.002304 -0.146186 1.794897 0.000001 -0.000000 0.000000 0.735248 -6.772905 9.348082 0.000659 -0.078305 0.961393 0.005766 -0.232011 2.849400 0.000001 -0.000000 0.000000 0.025917 -7.565908 -0.455637 0.000442 -0.064162 0.787438 0.089143 -0.907812 11.216255 -0.000003 0.000001 -0.000001 -90.592918 -29.806228 19.112287 90.229039 -1.521599 -8.840808 -5.225937 15.839147 13.044873 -0.000862 -0.000007 -0.000007 0.000003 0.000000 -0.000002 -57.153947 2.560367 -6.421854 71.580307 9.433611 4.441053 -0.500157 1.653965 9.379781 -0.000004 0.000003 0.000003 -0.000000 0.000000 -0.000000 
4.633422 202.095505 -19.042580 35.229675 -1.866817 -0.203701 -0.864654 1.832755 0.206192 2.933069 -1.546856 1.598813 0.326741 2.264731 -0.674688 -5.481173 1.048432 -1.980698 -22.431164 -4.219877 -1.675406 -0.000001 -0.000000 0.000000 -0.000001 -0.000000 0.000000 -0.000001 -0.000000 0.000000 1.307673 -10.012219 -3.834739 -41.861318 -24.336017 -9.710717 -0.000009 -82.822129 -0.000033 34.997162 -15.997763 8.282255 1.730818 7.735483 -21.088031 0.003643 0.206763 -2.018226 0.001511 0.133273 -1.300644 -0.000002 -0.000002 0.000001 -5.435231 -2.155080 -4.402366 19.774111 39.205993 -13.205095 -9.515120 -7.928972 13.466870 0.000000 -0.000001 -0.000001 2.090761 7.803194 -26.278620 0.267013 1.750144 -17.347526 0.000005 0.005822 -0.056773 -0.000001 -0.000001 -0.000001 0.395648 4.423590 -13.658467 0.000001 0.008436 -0.082381 0.000006 -0.000036 0.000300 -0.000000 0.000001 0.000002 -0.077607 -0.023854 -3.282504 0.006747 0.281455 -2.747697 0.003316 0.197335 -1.925967 0.000000 -0.000001 0.000000 -0.135491 -5.050589 -0.032894 -35.242376 9.744908 15.110733 -0.000017 81.873826 0.000013 29.167800 28.286436 -24.059408 1.496052 -9.075115 12.785259 0.047885 -0.666870 8.214456 0.015932 -0.385274 4.735030 0.000002 -0.000001 0.000001 -13.781370 1.060227 3.544396 13.255339 -35.107524 -4.609974 -3.061571 -11.473056 -15.147322 0.000001 0.000001 -0.000001 1.248805 -6.262145 20.956226 0.039080 -0.602709 7.419564 0.002306 -0.146184 1.794896 -0.000003 -0.000001 -0.000003 0.779034 -6.811314 9.903419 0.000660 -0.078306 0.961396 0.005767 -0.232010 2.849399 -0.000000 0.000002 -0.000001 0.060620 -7.592144 -0.079902 0.006597 -0.248156 3.047692 0.089145 -0.907806 11.216251 -0.000001 0.000002 -0.000001 -91.215373 -29.345211 18.560638 89.262062 -1.333856 -8.943559 -4.983055 14.700244 13.656085 -0.000860 -0.000008 -0.000009 0.000002 -0.000001 -0.000002 -57.519591 2.956490 -7.446572 71.077175 9.702945 4.443336 -0.943221 1.121543 10.110065 -0.000003 0.000003 0.000003 0.000000 -0.000000 0.000000 
4.699392 202.274933 -18.958359 35.285662 -1.939202 -0.262315 -0.897100 1.869769 0.224581 2.906007 -1.468767 1.644417 0.300168 2.343682 -0.628506 -5.471513 1.022754 -1.993187 -22.356261 -4.257798 -1.713562 -0.000001 -0.000000 0.000000 -0.000001 -0.000000 0.000000 -0.000001 -0.000000 0.000000 1.307671 -10.012220 -3.834739 -41.678460 -23.566234 -9.405152 0.000162 -82.391616 0.000160 35.215001 -16.505198 9.361287 1.706852 7.716884 -20.832261 0.003644 0.206716 -2.017605 0.001512 0.133274 -1.300645 -0.000000 0.000003 -0.000000 -5.435235 -2.155086 -4.402368 19.098976 37.948965 -13.101661 -9.515120 -7.928973 13.466869 -0.000001 -0.000000 0.000003 2.154947 7.847420 -26.951213 0.263955 1.740345 -17.247314 0.000005 0.005792 -0.056526 0.000000 0.000003 -0.000001 0.433916 4.610885 -13.190895 0.000004 0.008372 -0.081811 0.000008 -0.000036 0.000300 0.000005 -0.000003 0.000000 -0.056500 0.233507 -2.997975 0.006736 0.281191 -2.745063 0.003317 0.197332 -1.925969 -0.000002 0.000000 0.000000 -0.135490 -5.050589 -0.032894 -35.542522 9.851103 14.854492 -0.000037 79.433836 0.000022 27.550398 30.524583 -23.422725 1.624893 -9.317845 13.440068 0.047880 -0.666867 8.214455 0.015933 -0.385273 4.735029 0.000002 -0.000001 -0.000001 -13.511347 1.128362 2.518152 13.856229 -36.503427 -4.213807 -3.061572 -11.473026 -15.147312 0.000000 0.000002 -0.000004 1.313743 -6.317550 21.882611 0.044946 -0.646158 7.957641 0.002300 -0.146187 1.794895 0.000001 0.000002 -0.000002 0.827166 -6.853253 10.507063 0.000662 -0.078303 0.961393 0.005772 -0.232011 2.849398 -0.000000 -0.000002 0.000001 0.111482 -7.599785 0.473188 0.059013 -0.739821 9.120893 0.089143 -0.907798 11.216254 0.000000 0.000002 -0.000001 -91.899342 -28.378727 18.052391 88.386425 -1.352331 -9.051808 -4.460573 13.915842 14.302572 -0.000858 -0.000008 -0.000003 0.000003 0.000001 -0.000001 -57.673011 3.411561 -8.378493 70.724273 9.675929 4.444688 -1.386598 0.674966 10.688459 -0.000005 0.000003 0.000003 0.000000 -0.000000 -0.000000 
